<svg xmlns="http://www.w3.org/2000/svg" padding="80" width="256" height="269.775" viewBox="0 0 256 269.775"><defs><style>.a{fill:rgba(199,206,17,0.4);}.b{fill:#f79219;}.c{fill:#0fcb50;}.d{fill:#ef5d34;}</style></defs><g transform="translate(0 41.122) rotate(-11)"><path class="a" d="M127.989,221.479a10.288,10.288,0,0,1-4.047-.85,8.992,8.992,0,0,1-3.165-2.365,11.654,11.654,0,0,1-2.139-3.826,19.023,19.023,0,0,1-.954-5.228q-.058-1.113-.019-2.307c-2.892.433-5.434.691-7.487.8-13.584.748-49.565-.394-77.365-25.212s-36.266-70.878-31.6-94.132S13.947,43.424,37.6,22.195,100.749,0,100.749,0,117.9,2.777,128.214,13.993a39.558,39.558,0,0,1,10.2,24.813s.178,20.749-19.887,21.123-17.782-5.935-17.782-13.671,3.256-9.435,9.429-12.1S104.128,20,91.994,24.429,71.484,32.243,61.643,48.44,44.982,81.455,49.021,105.362s8.332,27.21,19.356,36.5c7.018,5.914,21.876,12.323,33.517,11.289,3.249-9.576,8.269-20.068,11.4-29.988-3.439-4.545-7.272-9.095-6.259-17.8l.02-.169-7.971-1.367s27.453-52.345,42.479-49.768c5.516.946,9.356,9.291,12.009,19.477,11.067,1.784,25.744,12.283,34.274,25.77q.707-.215,1.369-.369a13.5,13.5,0,0,1,3.335-.39,7.2,7.2,0,0,1,2.768.574,6.242,6.242,0,0,1,2.151,1.618,9.92,9.92,0,0,1,1.582,2.582,18.426,18.426,0,0,1,1.063,3.4,32.97,32.97,0,0,1,.6,4.075,92.308,92.308,0,0,1-1.022,20.039c-.446,3.2-1.018,6.633-1.7,10.2-.544,2.85-1.159,5.791-1.828,8.741-1.018,4.49-1.854,7.644-2.026,8.285l-5.189-2.313c-2.822,6.308-7.119,12.811-13.828,21.907A61.047,61.047,0,0,1,156.5,193.764c-3.3,8.377-6.942,15.812-12.481,20.446a41.527,41.527,0,0,1-5.838,4.135,26.052,26.052,0,0,1-5.4,2.4,15.93,15.93,0,0,1-4.6.736Z" transform="translate(0 0)"/><path class="b" d="M100.71,45.6c0,7.478,2.193,12.33,18.553,10.433s14.919-20.367,14.919-20.367.946-11.3-8.944-22.14S98.913,0,98.913,0s-37.86.933-60.53,21.453S5.626,63.868,1.158,86.344s3.647,67,30.293,90.983,60.74,27.419,73.761,26.7,51.1-7.773,66.813-29.256,17.621-28,18.84-53.382S160.247,70.473,145.09,74.246c-24.672,6.142-35.654,13.092-37.658,30.453s18.557,13.49,9.928,36.413-49.5,9.494-57.129-1.646S47.9,126.356,44.024,103.249s2.666-39.362,12.1-55.017A67.385,67.385,0,0,1,90.407,19.373c11.551-4.194,28.838,11.375,22.921,13.952S100.71,38.121,100.71,45.6Z" transform="translate(1.824 1.721)"/><path class="c" d="M12.728,119.834c-6.165-16.614,10.062-49.18,3.331-67.9L0,52.29S15.9.319,30.209,0s27.04,51.02,27.04,51.02l-16.337.362c-8.37,21.527,6.862,50.785-.2,67.83C37,128.2,31.637,132.77,26.389,132.886S16,128.665,12.728,119.834Z" transform="translate(111.535 51.103) rotate(11)"/><path class="d" d="M10.478,122.909C4.93,106.086,21.777,72.4,15.737,53.436L0,54.2S17.1.692,31.12.007,56.1,51.463,56.1,51.463l-16.009.782c-8.829,22.211,5.227,51.726-2.186,69.323C34,130.846,28.615,135.651,23.473,135.9S13.428,131.851,10.478,122.909Z" transform="matrix(0.891, 0.454, -0.454, 0.891, 165.529, 86.365)"/></g></svg>